<?xml version="1.0" encoding="UTF-8"?>
<!DOCTYPE svg PUBLIC "-//W3C//DTD SVG 1.1//EN" "http://www.w3.org/Graphics/SVG/1.1/DTD/svg11.dtd">
<!-- Creator: CorelDRAW 2017 -->
<svg xmlns="http://www.w3.org/2000/svg" xml:space="preserve" width="2019px" height="2481px" version="1.1" style="shape-rendering:geometricPrecision; text-rendering:geometricPrecision; image-rendering:optimizeQuality; fill-rule:evenodd; clip-rule:evenodd"
viewBox="0 0 2019 2480.41"
 xmlns:xlink="http://www.w3.org/1999/xlink">
 <defs>
  <style type="text/css">
   <![CDATA[
    .fil0 {fill:black}
    .fil1 {fill:#134C9D}
    .fil2 {fill:white;fill-rule:nonzero}
   ]]>
  </style>
 </defs>
 <g id="Слой_x0020_1">
  <metadata id="CorelCorpID_0Corel-Layer"/>
  <path class="fil0" d="M132.2 2216.53c0,145.57 118.31,263.88 263.88,263.88l1359.03 0c145.58,0 263.89,-118.31 263.89,-263.88l0 -1592.05 -626.53 -624.48 -996.39 0c-145.57,0 -263.88,118.32 -263.88,263.89l0 1952.64zm161.52 -1952.64c0,-56.07 45.78,-102.37 102.36,-102.37l935.69 -1.02 0 345.67c0,100.82 81.79,183.12 183.12,183.12l338.99 -1.02 3.6 1527.23c0,57.1 -45.78,102.88 -102.37,102.88l-1359.03 0c-56.58,0 -102.36,-45.78 -102.36,-102.37l0 -1952.12z"/>
  <rect class="fil1" y="1239.69" width="1670.91" height="858.01" rx="101.76" ry="103.12"/>
  <path class="fil2" d="M394.97 1917.09l0 -460.79 129.7 0c44.17,0 78.82,10.67 103.72,32 25.01,21.33 37.46,53.97 37.46,97.81 0,21.12 -2.6,39.58 -7.8,55.36 -5.08,15.9 -12.12,28.91 -20.89,38.93 -8.77,10.14 -19.71,18.35 -32.81,24.64 -13.1,6.19 -26.74,10.56 -41.14,13.12 -14.39,2.46 -30.42,3.74 -48.17,3.74l-68.1 0 0 195.19 -51.97 0zm51.97 -241.27l50.67 0c12.88,0 23.92,-0.43 33.23,-1.28 9.31,-0.86 18.62,-2.35 27.94,-4.48 9.2,-2.24 16.88,-5.34 22.95,-9.6 5.95,-4.16 11.37,-9.5 16.24,-16 4.87,-6.62 8.44,-14.72 10.61,-24.43 2.27,-9.7 3.35,-21.01 3.35,-33.92 0,-31.04 -8.22,-52.69 -24.68,-65.17 -16.46,-12.37 -41.36,-18.56 -74.7,-18.56l-65.61 0 0 173.44zm303.25 241.27l0 -460.79 128.51 0c20.35,0 38.65,2.35 54.89,7.04 16.34,4.7 30.09,10.88 41.25,18.56 11.25,7.68 21,17.49 29.23,29.55 8.23,11.94 14.72,24.1 19.38,36.48 4.65,12.37 8.33,26.88 11.04,43.41 2.81,16.53 4.55,32 5.41,46.5 0.87,14.51 1.3,30.72 1.3,48.86 0,153.59 -51.1,230.39 -153.3,230.39l-137.71 0zm51.96 -46.08l83.37 0c37.67,0 63.98,-14.82 79.14,-44.37 15.05,-29.54 22.63,-79.25 22.63,-149.01 0,-22.5 -0.87,-42.24 -2.49,-59.2 -1.74,-16.96 -4.88,-32.96 -9.42,-48.1 -4.55,-15.15 -10.51,-27.42 -18.08,-37.02 -7.47,-9.6 -17.22,-17.17 -29.34,-22.61 -12.02,-5.55 -26.2,-8.32 -42.44,-8.32l-83.37 0 0 368.63zm323.28 46.08l0 -460.79 218.91 0 0 46.08 -166.94 0 0 149.76 155.25 0 0 46.08 -155.25 0 0 218.87 -51.97 0z"/>
 </g>
</svg>
