<?xml version="1.0" encoding="UTF-8"?>
<!DOCTYPE svg PUBLIC "-//W3C//DTD SVG 1.1//EN" "http://www.w3.org/Graphics/SVG/1.1/DTD/svg11.dtd">
<!-- Creator: CorelDRAW 2017 -->
<svg xmlns="http://www.w3.org/2000/svg" xml:space="preserve" width="2019px" height="2481px" version="1.1" style="shape-rendering:geometricPrecision; text-rendering:geometricPrecision; image-rendering:optimizeQuality; fill-rule:evenodd; clip-rule:evenodd"
viewBox="0 0 2019 2480.41"
 xmlns:xlink="http://www.w3.org/1999/xlink">
 <defs>
  <style type="text/css">
   <![CDATA[
    .fil0 {fill:black}
    .fil1 {fill:#134C9D}
    .fil2 {fill:white;fill-rule:nonzero}
   ]]>
  </style>
 </defs>
 <g id="Слой_x0020_1">
  <metadata id="CorelCorpID_0Corel-Layer"/>
  <path class="fil0" d="M132.2 2216.53c0,145.57 118.31,263.88 263.88,263.88l1359.03 0c145.58,0 263.89,-118.31 263.89,-263.88l0 -1592.05 -626.53 -624.48 -996.39 0c-145.57,0 -263.88,118.32 -263.88,263.89l0 1952.64zm161.52 -1952.64c0,-56.07 45.78,-102.37 102.36,-102.37l935.69 -1.02 0 345.67c0,100.82 81.79,183.12 183.12,183.12l338.99 -1.02 3.6 1527.23c0,57.1 -45.78,102.88 -102.37,102.88l-1359.03 0c-56.58,0 -102.36,-45.78 -102.36,-102.37l0 -1952.12z"/>
  <rect class="fil1" y="1239.69" width="1693.24" height="858.01" rx="103.12" ry="103.12"/>
  <path class="fil2" d="M297.57 1406.2l56.07 0 60.11 311.37c6.37,34.74 10.83,69.37 13.38,104.11l1.17 0c6.48,-51.69 11.36,-85.06 14.65,-100.13l67.55 -315.35 63.18 0 60.33 311.27c4.35,23.12 8.81,57.86 13.38,104.21l1.27 0c0.53,-4.08 1.59,-12.24 3.08,-24.59 1.38,-12.34 2.55,-21.45 3.29,-27.31 0.64,-5.86 1.81,-13.39 3.4,-22.81 1.59,-9.41 3.19,-17.89 4.78,-25.42l67.01 -315.35 56.07 0 -107.68 452 -62.98 0 -61.38 -306.78c-4.78,-24.9 -9.03,-62.04 -12.75,-111.22l-2.44 0c-0.63,5.55 -1.48,13.71 -2.55,24.48 -1.06,10.89 -1.8,19.15 -2.33,24.91 -0.53,5.65 -1.28,12.66 -2.34,20.82 -1.06,8.16 -2.02,15.48 -3.08,22.07 -1.06,6.49 -2.33,12.87 -3.72,18.94l-66.9 306.78 -62.44 0 -98.13 -452zm511.66 283.02c0,-116.66 40.78,-175.05 122.24,-175.05 81.24,0 121.81,58.6 121.81,175.68 0,33.48 -2.76,61.83 -8.29,85.17 -5.52,23.33 -13.7,41.64 -24.74,54.92 -11.04,13.19 -23.68,22.71 -38.02,28.46 -14.34,5.76 -31.33,8.58 -50.76,8.58 -15.4,0 -29.1,-1.77 -41.21,-5.23 -12,-3.45 -23.25,-9.41 -33.45,-17.78 -10.3,-8.37 -18.9,-19.26 -25.81,-32.65 -6.79,-13.39 -12.21,-30.34 -16.03,-50.85 -3.82,-20.51 -5.74,-44.26 -5.74,-71.25zm50.98 4.92c0,20.82 1.17,38.92 3.4,54.4 2.23,15.38 6.05,29.19 11.25,41.33 5.31,12.14 12.64,21.35 21.99,27.62 9.45,6.18 20.92,9.32 34.62,9.32 13.8,0 25.38,-3.14 34.94,-9.32 9.45,-6.27 16.78,-15.48 21.98,-27.72 5.1,-12.35 8.71,-26.06 10.83,-41.23 2.02,-15.27 3.08,-33.37 3.08,-54.4 0,-50.75 -5.41,-86.64 -16.25,-107.88 -10.83,-21.24 -29.09,-31.91 -54.58,-31.91 -25.81,0 -44.18,10.67 -55.01,31.91 -10.84,21.24 -16.25,57.13 -16.25,107.88zm268.89 164.06l0 -335.34 48.43 0 0 54.72 0.64 0c9.13,-20.19 20.28,-35.05 33.56,-44.68 13.27,-9.52 30.26,-14.33 51.08,-14.33 2.23,0 6.69,0.42 13.38,1.25l0 46.46c-7.11,-1.26 -13.81,-1.88 -20.28,-1.88 -24.43,0 -43.65,8.16 -57.56,24.48 -13.91,16.43 -20.82,38.29 -20.82,65.71l0 203.61 -48.43 0zm185.75 -175.78c0,-33.07 3.61,-62.05 10.93,-86.85 7.23,-24.79 18.7,-44.57 34.31,-59.32 15.61,-14.75 34.62,-22.08 57.13,-22.08 16.67,0 30.8,3.46 42.38,10.26 11.57,6.9 23.47,17.89 35.57,32.96l1.28 0 0 -151.19 48.42 0 0 452 -48.42 0 0 -41.54 -0.64 0c-10.3,19.67 -21.24,32.95 -32.82,39.86 -11.57,7.01 -27.61,10.46 -48.21,10.46 -16.25,0 -30.48,-3.34 -42.69,-10.15 -12.11,-6.69 -21.77,-15.59 -28.99,-26.47 -7.12,-10.98 -12.96,-24.69 -17.32,-41.22 -4.35,-16.53 -7.22,-33.17 -8.7,-49.8 -1.49,-16.64 -2.23,-35.68 -2.23,-56.92zm50.97 7.43c0,10.77 0.11,20.19 0.32,28.04 0.21,7.84 0.85,16.84 1.81,26.89 1.06,10.15 2.44,18.83 4.24,25.94 1.7,7.12 4.25,14.55 7.44,22.08 3.18,7.53 7.01,13.6 11.47,18.21 4.35,4.6 9.98,8.37 16.67,11.4 6.69,2.93 14.34,4.4 22.73,4.4 12.42,0 22.83,-3.04 31.43,-9.21 8.6,-6.07 15.4,-15.49 20.39,-28.04 5.1,-12.56 8.71,-27.31 10.83,-44.15 2.23,-16.85 3.3,-37.04 3.3,-60.48 0,-87.05 -22.2,-130.58 -66.59,-130.58 -9.45,0 -17.84,1.88 -25.06,5.65 -7.22,3.77 -13.07,9.42 -17.63,16.74 -4.57,7.33 -8.29,15.07 -11.26,23.23 -2.97,8.27 -5.2,17.89 -6.48,28.98 -1.38,11.2 -2.33,21.24 -2.87,30.24 -0.53,9 -0.74,19.15 -0.74,30.66z"/>
 </g>
</svg>
