<svg xmlns="http://www.w3.org/2000/svg" width="244" height="1079" viewBox="0 0 244 1079">
  <metadata><?xpacket begin="﻿" id="W5M0MpCehiHzreSzNTczkc9d"?>
<x:xmpmeta xmlns:x="adobe:ns:meta/" x:xmptk="Adobe XMP Core 5.6-c142 79.160924, 2017/07/13-01:06:39        ">
   <rdf:RDF xmlns:rdf="http://www.w3.org/1999/02/22-rdf-syntax-ns#">
      <rdf:Description rdf:about=""/>
   </rdf:RDF>
</x:xmpmeta>
                                                                                                    
                                                                                                    
                                                                                                    
                                                                                                    
                                                                                                    
                                                                                                    
                                                                                                    
                                                                                                    
                                                                                                    
                                                                                                    
                                                                                                    
                                                                                                    
                                                                                                    
                                                                                                    
                                                                                                    
                                                                                                    
                                                                                                    
                                                                                                    
                                                                                                    
                                                                                                    
                           
<?xpacket end="w"?></metadata>
<defs>
    <style>
      .cls-1 {
        fill: #fff;
        fill-rule: evenodd;
		opacity: 0.1;
      }
    </style>
  </defs>
  <path id="Shape_1_copy_8" data-name="Shape 1 copy 8" class="cls-1" d="M25.173,945.243l-1.411.71-0.58,2.887h0c0.68-1.208,1.336-2.415,1.99-3.6h0ZM1061.49,1304.61l-19.06,3.12h0c13.41,11.59,21.19,19.51,21.19,19.51s3.68-.83-2.13-22.63h0ZM207.6,697.669l378.173-59.881h0c-12.355-17.173-23.239-31.245-32.385-42.409h0L214.124,649.135h0c-1.539,17.061-3.511,32.75-6.52,48.534h0Zm321.082-138.48c0.58-8.834,6.358-26.412,51.51-7.545h0l73.683-11.849h0c-4.577-6.51-10.54-12.583-16.953-19.115-5.5-8.346-12.367-15.337-17.851-22.758h0L218.3,559.833h0c1.228,17.112-.288,31.43.023,47.6h0l310.365-48.239h0ZM311.733,63.281S311.1,41.938,324.676,17.605h0L66.631,58.453h0c8.575,13.569,18.646,28.415,26.408,42.759h0L362.687,58.156h0c-19.389-1.133-38.443.157-50.954,5.125h0ZM426.477,966.358L92.836,1019.14h0c-11.242,17.49-23.014,35.44-34.3,53.84h0l380.484-60.3h0c-8.09-24.107-12.531-39.89-12.538-46.322h0ZM-37.63-68.2L-25.254-55.6h0L521.591-142.76h0c-2.305.418-5.519-1.02-8.829-2.335-20.163-11.333-39.533-21.638-58.311-34.326h0L-65.083-96.164h0L-37.63-68.2h0ZM640.029,582.7c26.213,13.6,45.44,28.6,56.916,37.52,13.87,9.291,19.361,14.884,19.361,14.884s-3.649-5.552-10.519-17.151a410.716,410.716,0,0,0-26.4-42.75h0l-39.36,7.5h0ZM483.988,1004.24l359.574-56.294h0c-10.5-13.46-21.958-26.966-34.318-42.309h0L443.7,963.2h0c10.059,10.245,23.233,25.732,40.289,41.037h0Zm24.591,259.79c-0.324-13.41-1.982-29.18-4.128-47.24h0l-94.99,14.52h0c24.333,16.39,43.646,28.58,58.35,38.87h0l40.768-6.15h0ZM39.632,21.764L393.706-32.775h0c9.3-4.564,18.148-6.815,29.723-9.038C539.194-61.151,585.073-59.474,629.3-91.9c0,0-11.914-5.7-43.313-19.747h0L7.721-20.163h0C18.22-6.7,29.685,6.8,39.632,21.764h0Zm890.637,1174.5,88.571-12.78h0c-5.5-14.79-11.76-30.59-17.6-45.06h0l-112.189,17.69h0c12.343,12.58,27,27.51,41.218,40.15h0ZM-104.023-129.388l507.842-80.919h0c-20.65-13.664-41.361-26.252-64.422-37.55h0L-155.432-170.49h0c17.859,13.614,34.35,26.727,51.409,41.1h0ZM1007.64,1272.3l42.68-6.18h0c-3.18-7.84-4.9-17.18-10.86-26.94a90.987,90.987,0,0,0-4.89-17.16h0l-69.522,9.66h0c14.659,14.93,29.3,29.84,42.592,40.62h0ZM194.507,348.7l556.6-88.485h0c-16.6-12.084-35.387-24.784-53.71-38.843h0l-516.213,81.8h0c4.444,15.8,8.891,29.752,13.321,45.524h0ZM714.683,1112.99c45-17.6,86.641-22.79,134.969,10.35h0l132.531-22.95h0a330.472,330.472,0,0,0-27.338-41.87h0L616.167,1110.8h0c29.433,14.13,61.319,16.72,98.516,2.19h0ZM169.47,266.177l481.984-77.589h0c-18.889-12.556-37.217-26.634-56.128-39.239h0L151.876,220.23h0c6.394,13.867,13.572,29.685,17.594,45.947h0Zm41.291,167.346L462.954,393.85h0c4.726-18.417,16-38.645,50.457-47.7,53.229-13.821,86.933-.189,132.992,19.589h0l294.2-47.006h0l8.959-6.97s-77.9,14.209-132.7-12.631c-4.578-1.9-9.162-4.73-13.874-6.542h0L202.017,388.071h0c3.522,14.86,5.21,30.579,8.744,45.452h0ZM564.607,1078.98l360.027-55.82h0c-5.5-5.6-10.069-10.25-16.024-13.56-10.988-9.36-21.091-16.882-31.161-27.139h0L518.338,1039.22h0c15.559,15.85,32.964,30.81,46.269,39.76h0ZM136.6,182.12l403.626-63.83h0a456.574,456.574,0,0,0-78.847-34.326h0l-347.088,55h0c7.78,14.349,14.054,28.328,22.309,43.16h0ZM552.828,419.175L215.04,474.219h0c0.777,14.792,2.913,30.089,2.3,46.243h0l372.532-58.955h0c-12.313-17.144-24.226-32.031-37.043-42.332h0ZM117.376,974.945L780.523,869.714h0c-10.534-12.566-21.5-26.5-33.875-40.941h0L142.416,922.859h0c-8.043,17.056-17.492,35.47-25.04,52.086h0ZM158.6,880.409L717.489,792.4h0l-15.572-15.86c-6.4-9.288-14.2-17.227-21.066-26.058h0L177.172,831.029h0c-5.77,16.668-11.56,33.29-18.571,49.38h0ZM24.3,1117.62c-15.008,19.28-30.906,36.74-46.367,54.64h0l490.729-76.97h0c-7.179-15.82-12.648-30.59-18.035-45.49h0L24.3,1117.62h0Zm481.1,187.12,1.361,1.39-1.361-1.39h0ZM200.759,738.282c-3.378,17.023-7.3,33.726-11.577,49.806h0l461.476-72.957h0c-11.9-14.875-23.231-28.484-34.219-42.429h0l-415.68,65.58h0Zm294.819,439.6c-0.906-5.53-3.074-12.56-5.346-19.49a192.561,192.561,0,0,0-8.558-24.56h0l-551.881,85.69h0c-22.9,22.48-46.689,41.27-69.526,59.15h0l431.877-68.66h0c-5.811-19.03-9.847-32.48-9.847-32.48s20.366,0.15,69.633,23.23h0l143.648-22.88h0Z"/>
</svg>
