<?xml version="1.0" encoding="UTF-8"?>
<!DOCTYPE svg PUBLIC "-//W3C//DTD SVG 1.1//EN" "http://www.w3.org/Graphics/SVG/1.1/DTD/svg11.dtd">
<!-- Creator: CorelDRAW 2017 -->
<svg xmlns="http://www.w3.org/2000/svg" xml:space="preserve" width="2480px" height="2480px" version="1.1" style="shape-rendering:geometricPrecision; text-rendering:geometricPrecision; image-rendering:optimizeQuality; fill-rule:evenodd; clip-rule:evenodd"
viewBox="0 0 2480 2480"
 xmlns:xlink="http://www.w3.org/1999/xlink">
 <defs>
  <style type="text/css">
   <![CDATA[
    .fil0 {fill:#134c9d}
   ]]>
  </style>
 </defs>
 <g id="Слой_x0020_1">
  <metadata id="CorelCorpID_0Corel-Layer"/>
  <path class="fil0" d="M2342.77 672.44c-86.84,-168.42 -213.48,-317.14 -366.21,-430.08 -22.42,-16.57 -54.01,-11.84 -70.59,10.57 -16.58,22.41 -11.84,54.01 10.57,70.59 140.36,103.79 256.72,240.44 336.52,395.19 83.61,162.14 126,337.52 126,521.29 0,628.08 -510.99,1139.07 -1139.06,1139.07 -628.08,0 -1139.07,-510.99 -1139.07,-1139.07 0,-628.09 510.99,-1139.07 1139.07,-1139.07 27.86,0 50.46,-22.6 50.46,-50.47 0,-27.87 -22.6,-50.47 -50.46,-50.47 -683.74,0 -1240.01,556.27 -1240.01,1240.01 0,683.73 556.27,1240 1240.01,1240 683.73,0 1240,-556.27 1240,-1240 0,-197.2 -47.45,-393.45 -137.23,-567.56z"/>
 </g>
</svg>
