<svg xmlns="http://www.w3.org/2000/svg" xmlns:xlink="http://www.w3.org/1999/xlink"><defs>
	<style>
		.google-play {
			fill-rule: evenodd;
		}
	</style>
	<symbol id="google-play" viewBox="0 0 2325 2480.42">
		<path id="Blue" class="google-play0 google-play" d="M1288.05 1190.82l-1199.7 1199.69c-57.35,-54.25 -88.35,-128.64 -88.35,-209.25l0 -1881.69c0,-82.15 32.55,-156.55 91.45,-212.35l1196.6 1103.6z"/>
		<path id="Yellow" class="google-play1 google-play" d="M2325 1240.42c0,108.5 -58.9,204.6 -156.55,258.85l-341 189.1 -423.15 -390.6 -116.25 -106.95 447.95 -447.95 432.45 238.7c97.65,54.25 156.55,150.35 156.55,258.85z"/>
		<path id="Green" class="google-play2 google-play" d="M1288.05 1190.82l-1196.6 -1103.6c15.5,-15.5 35.65,-29.45 55.8,-41.85 97.65,-58.9 215.45,-60.45 316.2,-4.65l1272.55 702.15 -447.95 447.95z"/>
		<path id="Red" class="google-play3 google-play" d="M1827.45 1688.37l-1364 751.75c-48.05,27.9 -102.3,40.3 -155,40.3 -55.8,0 -111.6,-13.95 -161.2,-44.95 -21.7,-12.4 -41.85,-27.9 -58.9,-44.95l1199.7 -1199.7 116.25 106.95 423.15 390.6z"/>
	</symbol>
</svg>