<?xml version="1.0" encoding="UTF-8"?>
<!DOCTYPE svg PUBLIC "-//W3C//DTD SVG 1.1//EN" "http://www.w3.org/Graphics/SVG/1.1/DTD/svg11.dtd">
<!-- Creator: CorelDRAW 2017 -->
<svg xmlns="http://www.w3.org/2000/svg" xml:space="preserve" width="959px" height="352px" version="1.1" style="shape-rendering:geometricPrecision; text-rendering:geometricPrecision; image-rendering:optimizeQuality; fill-rule:evenodd; clip-rule:evenodd"
viewBox="0 0 959 352.05"
 xmlns:xlink="http://www.w3.org/1999/xlink">
 <defs>
  <style type="text/css">
   <![CDATA[
    .fil0 {fill:#ffffff}
   ]]>
  </style>
 </defs>
 <g id="Слой_x0020_1">
  <metadata id="CorelCorpID_0Corel-Layer"/>
  <path class="fil0" d="M929.41 329.35l0 -46.12 29.23 0 0 -28.68 -29.23 0 0 -173.21 -41.4 0 -3.81 0 -104.4 201.89 96.77 0 0 46.12 -34.86 0 0 22.7 113.48 0 3.81 0 0 -22.7 -29.59 0zm-52.84 -74.8l-60.46 0 60.46 -112.57 0 112.57zm-101.67 -173.21l-29.6 0 -3.81 0 -56.28 54.65 13.25 16.52 3.81 0 14.35 -12.89 0 189.73 -29.6 0 0 22.7 113.48 0 3.81 0 0 -22.7 -29.59 0 0 -248.01 0.18 0zm-257.27 98.95l73.35 -76.26 32.32 0 0 -22.69 -92.24 0 -3.81 0 0 22.69 30.68 0 -98.04 101.5 0 -101.5 29.6 0 0 -22.69 -113.48 0 -3.81 0 0 22.69 29.59 0 0 225.32 -29.59 0 0 22.7 113.47 0 3.82 0 0 -22.7 -29.6 0 0 -88.96 22.33 -23.24 71.54 112.2 -19.79 0 0 22.7 96.04 0 0 -22.7 -14.16 0 -98.22 -149.06zm-200.81 -153.05l78.62 0 0 27.41 28.5 0 0 -54.65 -194.81 0 0 22.51 29.59 0 0 306.66 -29.59 0 0 22.69 120.37 0 0 -22.69 -32.68 0 0 -301.93zm-316.82 54.1l0 51.02 23.6 0 3.82 0 0 -28.33 57.37 0 0 225.32 -29.6 0 0 22.7 161.96 0 3.81 0 0 -22.7 -78.07 0 0 -225.32 57.37 0 0 28.33 23.6 0 3.82 0 0 -51.02 -223.87 0 -3.81 0zm597.7 162.31l90.23 0 0 -25.05 -90.23 0 0 25.05z"/>
 </g>
</svg>
