<?xml version="1.0" encoding="UTF-8"?>
<!DOCTYPE svg PUBLIC "-//W3C//DTD SVG 1.1//EN" "http://www.w3.org/Graphics/SVG/1.1/DTD/svg11.dtd">
<!-- Creator: CorelDRAW 2017 -->
<svg xmlns="http://www.w3.org/2000/svg" xml:space="preserve" width="155px" height="147px" version="1.1" style="shape-rendering:geometricPrecision; text-rendering:geometricPrecision; image-rendering:optimizeQuality; fill-rule:evenodd; clip-rule:evenodd"
viewBox="0 0 155 147.52"
 xmlns:xlink="http://www.w3.org/1999/xlink">
 <defs>
  <style type="text/css">
   <![CDATA[
    .fil0 {fill:white}
   ]]>
  </style>
 </defs>
 <g id="Слой_x0020_1">
  <metadata id="CorelCorpID_0Corel-Layer"/>
  <path class="fil0" d="M110.01 61.37l0 0 0 0c0,0 0,0 0,0zm-20.04 63.93l41.71 -59.19c-0.54,-0.55 -0.91,-1.27 -1.27,-1.64l-38.98 55.19c0,1.27 -0.54,3.09 -1.46,5.64zm-59.55 -41.52c0.72,0.54 1.09,1.09 1.45,1.45l7.29 -10.38c0,-1.09 -0.18,-2.18 -0.18,-3.28l-8.56 12.21zm12.56 17.85l4.38 -6.2c-0.55,-0.54 -0.92,-1.09 -1.28,-1.64l-5.28 7.47c0.55,0 1.27,0.18 1.82,0.36 0.18,0.01 0.18,0.01 0.36,0.01zm47.54 16.39l12.93 -18.4c-1.64,1.64 -3.46,3.1 -5.46,4.37l-11.84 16.76c2.55,-2.19 3.64,-3.28 4.37,-2.73zm-54.09 -17.12c0.73,0 1.64,0 2.37,0.18l6.19 -8.74c-0.37,-0.55 -0.73,-1.28 -1.09,-1.82l-7.47 10.38zm22.4 10.38l3.1 -4.37c-0.55,-0.37 -1.28,-0.55 -1.83,-0.91l-4.18 5.82c0.72,-0.18 1.27,-0.36 1.82,-0.36 0.54,-0.18 0.72,-0.18 1.09,-0.18zm-10.56 13.66c-2.01,1.82 -3.1,3.28 -4.38,4.37l-3.27 4.37c0.72,0.19 1.45,0.37 2.18,0.37l12.39 -17.67c-2.74,2.37 -3.46,5.46 -6.92,8.56zm-8.75 5.83c-0.54,0 -1.09,0.18 -1.45,0.18l-1.1 1.46c0.55,0.36 1.28,0.54 2.01,0.73l1.82 -2.55c-0.55,0.18 -0.91,0.18 -1.28,0.18zm-4.19 -18.4c-1.45,0.19 -2.36,0.37 -2.73,0.37 -0.54,0.18 -0.54,0.18 -0.54,0.18 0,0 0.18,0 0.36,0.18 0.36,0.18 0.91,0.55 1.82,0.91l1.09 -1.64zm8.02 -4.91c-2.19,1.82 -3.64,3.27 -5.47,4l-2.18 3.1c0.73,0.18 1.46,0.36 2.18,0.54l5.47 -7.64zm-1.09 7.83l0.18 0 10.2 -14.39c-0.55,-0.55 -1.1,-0.91 -1.46,-1.46l-2.73 4.01 -1.09 1.64 -7.29 10.2c0.55,0.18 1.27,0 2.19,0zm16.39 -10.02c-0.55,-0.36 -1.1,-0.73 -1.82,-1.09l-6.74 9.47c1.09,-0.37 2.18,-0.73 3.28,-1.09l5.28 -7.29zm-8.75 -6.92c-0.54,-0.55 -0.91,-1.09 -1.45,-1.64l-3.65 5.28c0.73,0.18 1.46,0.36 2.01,0.73l3.09 -4.37zm13.85 9.29l-2.73 4c0.91,0.19 1.45,0.37 1.45,0.37 0,0 -1.09,0.73 -2.91,1.82l-14.39 20.21c0.73,0 1.64,-0.18 2.73,-0.36l17.85 -25.32c-0.73,-0.36 -1.46,-0.54 -2,-0.72zm27.14 0l-13.48 18.94c-0.18,0.91 -0.37,1.82 -0.37,2.91l0 0.91 17.31 -24.58c-1.1,0.72 -2.37,1.27 -3.46,1.82zm-8.2 2c-0.91,0.18 -1.82,0.18 -2.73,0.36l-4.56 6.38c0.19,0 0.37,0 0.55,-0.18 0.91,-0.19 1.64,-0.37 2.37,-0.37l4.37 -6.19zm5.46 -1.09c-1.09,0.36 -2,0.54 -2.91,0.73l-4.55 6.55c0.72,0 1.27,0.18 1.27,0.18 0,0 -2,2.01 -3.1,5.83l9.29 -13.29zm-20.76 0.18l-17.12 24.41c0.91,-0.19 2,-0.55 3.09,-0.73l16.21 -22.95c-0.9,-0.37 -1.63,-0.55 -2.18,-0.73zm3.82 0.91l-15.29 21.49c1.27,-0.54 2.54,-1.09 3.82,-1.82l13.84 -19.49c-0.73,0 -1.64,0 -2.37,-0.18zm6.02 0.55c-0.55,0 -1.28,0 -1.83,0l-11.29 15.84c3.1,-2.91 5.47,-5.46 7.65,-7.46l6.01 -8.38 -0.54 0zm-21.68 -6.92c-0.54,-0.37 -1.09,-0.92 -1.64,-1.28l-9.11 12.93c0.92,-0.18 1.83,-0.36 2.92,-0.54l7.83 -11.11zm49.36 6.55c0,0 0.18,0 0.36,0.18l20.95 -29.68c0,0 0,-0.19 0,-0.19 0,0 0,0 0,0l8.01 -11.29c-0.54,-0.54 -1.09,-0.91 -1.46,-1.46l-44.8 63.39c-0.18,1.27 -0.36,2.55 -0.18,4l17.3 -24.77c-0.18,-0.18 -0.18,-0.18 -0.18,-0.18zm-48.99 -90.7l4 -5.46c-1.82,1.45 -3.09,2.54 -4,5.46zm95.62 61.01c0,0 -0.19,-0.18 -0.37,-0.18l-2.73 4.01c0.73,0 1.27,0.18 2,0.55l2.19 -3.1c-0.37,-0.37 -0.73,-0.91 -1.09,-1.28zm-14.21 -9.1c-0.55,-0.37 -1.09,-0.73 -1.64,-1.09l-7.65 10.74c0.55,0.18 1.27,0.55 1.82,0.73l7.47 -10.38zm8.01 4.55l-5.64 8.01c0.73,0 1.64,0.19 2.36,0.19l4.92 -7.11c-0.54,-0.54 -1.09,-0.91 -1.64,-1.09zm-54.64 67.94l10.57 -15.12c0.36,-0.55 0.54,-1.27 0.91,-1.82 0.73,-1.46 1.46,-3.46 2,-5.65l-14.75 20.95c0.36,0.55 0.73,1.09 1.27,1.64zm57.74 -65.94l-4.37 6.2c0.18,0 0.36,0 0.54,0l2.01 0 3.64 -5.1c-0.73,-0.37 -1.27,-0.73 -1.82,-1.1zm-9.65 -5.82l-7.29 10.2c0.73,0.18 1.46,0.36 2.01,0.54l6.92 -9.83c-0.55,-0.19 -1.1,-0.55 -1.64,-0.91zm3.27 1.82l-6.55 9.29c0.73,0 1.46,0.18 2.18,0.36l6.2 -8.56c-0.73,-0.36 -1.28,-0.73 -1.83,-1.09zm-53.54 66.48l16.39 -23.32c0.36,-1.64 0.36,-3.09 0.36,-4l-17.48 24.77c0.18,0.91 0.36,1.64 0.73,2.55zm-47.18 -126.22c-0.72,-0.18 -1.45,-0.18 -2.18,-0.18 0,0 0.36,0.72 0.73,2l1.45 -1.82zm-6.19 118.2l0.55 -0.73c-1.46,0.19 -2.19,0.19 -2.19,0.19 0,0 0.73,0.18 1.64,0.54zm92.34 -18.39l-3.09 4.19c0.54,0.73 0.91,1.27 1.46,1.64l2.36 -3.46c-0.36,-0.73 -0.54,-1.46 -0.73,-2.37zm1.46 4.19l-1.64 2.55c0.37,0 0.55,0 1.09,0l1.46 0c1.28,0 1.82,-0.19 1.82,-0.19 0,0 -0.54,-0.18 -1.09,-0.72 -0.55,-0.55 -1.09,-1.1 -1.64,-1.64zm-116.56 -43.72l0.91 -1.45c-0.37,0 -0.55,-0.19 -0.73,-0.37 -0.55,-0.18 -0.91,-0.36 -1.09,-0.54 -0.55,-0.19 -0.55,-0.19 -0.55,-0.19 0,0 0,0.19 0.18,0.55 0.36,0.73 0.73,1.46 1.28,2zm14.75 -41.52c0.36,-1.1 0.36,-1.1 0.36,-1.1 0,0 -3.82,4.38 -5.65,10.2l4.74 -6.73c0,-0.55 0.18,-1.28 0.55,-2.37zm66.48 113.1l4.92 -7.1c0,-1.28 0.18,-2.73 0.54,-4.37l-7.28 10.38c0.72,0.36 1.27,0.73 1.82,1.09zm3.64 1.28c0.91,0.36 1.09,0.54 1.09,0.54 0,0 0,-1.09 0.19,-2.55 0,-1.09 0.18,-2.18 0.18,-3.64l-3.46 4.74c0.91,0.54 1.64,0.73 2,0.91zm29.51 -38.8l-4.38 6.2c0.37,0.54 0.55,1.09 0.92,1.64 0.18,0.18 0.18,0.18 0.36,0.36l3.64 -5.28c-0.36,-0.91 -0.36,-1.82 -0.54,-2.92zm-1.28 -10.2c0,-0.36 0,-0.54 0,-0.72l-7.47 10.56c0.37,0.55 0.91,1.09 1.28,1.64l6.55 -9.29c-0.18,-0.73 -0.18,-1.46 -0.36,-2.19zm-14.21 6.38l-4.91 6.74c0.36,0.54 0.91,1.09 1.27,1.64l3.83 -5.28c0,-1.28 0,-2.56 -0.19,-3.1zm-2 11.47c0,0.37 0.18,0.73 0.18,1.09l1.64 -2.54c0.37,-1.28 0.55,-2.92 0.55,-4.19l-3.1 4.19c0.37,0.54 0.55,0.91 0.73,1.45zm15.3 -23.67l-8.92 12.74c0.54,0.55 0.91,0.92 1.45,1.46l8.2 -11.47c-0.55,-1.1 -0.73,-2.01 -0.73,-2.73zm-1.82 -4.19l-10.57 14.93c0.55,0 1.1,0.18 2.01,0.73l9.65 -13.66c-0.36,-0.73 -0.73,-1.28 -1.09,-2zm4.01 -5.65l-3.1 4.37c0.55,0 1.09,0.36 2,0.91l2.01 -2.91c-0.19,-0.37 -0.37,-0.55 -0.37,-0.91 -0.18,-0.37 -0.36,-0.91 -0.54,-1.46zm-102.91 -24.22l8.38 -11.84c-0.55,-0.37 -1.09,-0.73 -1.64,-1.1l-7.65 10.75c0.36,0.73 0.55,1.46 0.91,2.19zm-7.65 20.03c0.55,0.37 1.09,0.55 1.82,0.73 0,0 0,0 0.18,0l5.47 -7.83c-0.73,0 -1.64,0 -2.37,0l-5.1 7.1zm2.73 -6.56c-0.18,0 -0.54,0 -0.73,0.19 -1.09,0.36 -1.82,0.72 -2.55,0.91l-2.18 3.09c0.36,0.55 0.91,0.91 1.45,1.46l4.01 -5.65zm107.1 31.15l-5.83 8.38c0.36,0.54 0.73,1.27 1.09,1.82l5.1 -7.1c-0.18,-1.1 -0.18,-2.19 -0.36,-3.1zm-79.05 -68.12l-20.58 29.14c0.36,0.73 0.73,1.46 1.09,2l19.85 -28.04c0.01,-0.91 -0.18,-2.01 -0.36,-3.1zm-19.49 46.99c0.55,0.18 0.91,0.55 1.28,0.73 0.18,0 0.18,0.18 0.36,0.36l10.02 -14.2c0.18,-1.46 0.36,-2.92 0.54,-4.19l-12.2 17.3zm124.58 -41.34l-0.54 0.73c0.72,0 1.27,0 1.27,0 0,0 0,-0.19 -0.73,-0.73zm-121.66 34.24c-0.37,-0.55 -0.73,-1.28 -1.28,-1.82l-5.46 7.65c0.73,0.18 1.45,0.36 2,0.54l4.74 -6.37zm-2.55 -2.73c-0.55,-0.19 -1.28,-0.37 -2.19,-0.55l-5.65 8.01c0.73,0.19 1.46,0.37 2.19,0.55l5.65 -8.01zm80.14 -23.5l9.47 -13.48c-0.91,-0.18 -1.64,-0.18 -2.19,-0.36l-8.56 12.02c0.36,0.73 0.91,1.27 1.28,1.82zm-91.25 42.07l-6.2 8.75c0.55,0.36 1.28,0.54 2.01,0.73l7.46 -10.75c-0.91,0.55 -2,0.91 -3.27,1.27zm-4.92 0.55l-4.37 6.19c0.54,0.37 1.09,0.73 1.64,1.1l5.28 -7.47c-0.91,0.18 -1.64,0.18 -2.55,0.18zm102.36 -61.38l-10.02 14.21c0.55,0.54 0.91,0.91 1.46,1.45l7.83 -10.92c-0.18,-0.37 -0.54,-0.91 1.28,-1.82l1.82 -2.55c-0.37,0 -0.73,0 -1.1,0 -0.54,-0.19 -0.91,-0.19 -1.27,-0.37zm-110.19 59.56l-1.64 2.37c0.36,0.54 0.73,1.09 1.27,1.82l2.19 -3.28c-0.55,-0.36 -1.28,-0.55 -1.82,-0.91zm19.49 -1.82l-9.29 13.29c0.54,0 0.91,0.19 1.45,0.19 0.37,0 0.55,0 0.92,0l10.56 -14.94c-1.82,0.37 -2.73,0.73 -3.64,1.46zm68.3 -61.38c0,0 -0.73,-0.55 -1.1,-1.82l-6.55 9.1c0.73,0.19 1.45,0.37 2,0.55l6.74 -9.65c-0.37,0.73 -0.91,1.27 -1.09,1.82zm22.58 35.7c0.18,0.91 0.36,1.82 0.55,2.73l9.47 -13.48c-0.91,-0.54 -1.64,-0.73 -1.82,-1.09l-8.2 11.84zm-106.73 28.77l-2.91 4.01c0.36,0.55 0.91,1.09 1.45,1.46l3.65 -5.1c-0.73,0 -1.46,-0.18 -2.19,-0.37zm70.49 -57.73l13.66 -19.49c0,0 -0.19,0.18 -0.37,0.18 -0.91,0.37 -1.82,0.55 -2.73,0.73l-12.93 18.4 2.37 -0.01 0 0.19zm39.34 -1.1c1.27,-0.36 2.18,-0.54 2.91,-0.54 0.73,-0.18 1.09,-0.18 1.09,-0.18 0,0 -0.36,0 -0.91,-0.19 -0.54,-0.18 -1.27,-0.36 -2,-0.54l-1.09 1.45zm8.19 17.49l9.11 -12.75c-0.73,0 -1.46,-0.18 -2.37,-0.18l-9.11 12.93c0.37,0 1.28,0 2.37,0zm8.56 7.1c-0.36,-0.36 -0.91,-0.91 -1.64,-1.27l-2.36 3.28c1.27,-0.19 2.18,-0.55 2.91,-0.55l1.09 -1.46zm-51.9 -23.13l8.92 -12.57c0.18,-0.36 0.36,-0.72 0.55,-1.27 2.91,-4.19 4.37,-5.46 4.55,-7.83 0,0 -0.55,0.18 -1.82,0.73l-14.57 20.58c0.91,0.18 1.64,0.18 2.37,0.36zm-53.19 52.64l-10.74 15.12c0.72,0 1.64,0 2.36,0.18l10.57 -14.94c-0.37,-0.18 -1.28,-0.36 -2.19,-0.36zm115.66 -44.44l2.18 -3.1c-0.54,-0.36 -1.27,-0.54 -1.82,-0.73l-2.73 4.01c0.73,-0.18 1.46,-0.18 2.37,-0.18zm-144.25 46.26c-0.37,-0.18 -0.55,-0.36 -0.55,-0.36 0,0 0.18,0.36 0.36,0.72 0.19,0.55 0.55,1.1 1.1,2.01l1.09 -1.46c-0.91,-0.36 -1.46,-0.73 -2,-0.91zm72.85 -54.64l12.75 -18.03c-1.09,0.18 -2,0.54 -3.1,0.91l-12.38 17.48c0.91,0 1.82,-0.18 2.73,-0.36zm75.95 8.2l1.09 -1.46c-0.36,-0.18 -0.73,-0.37 -1.09,-0.55 -0.18,-0.18 -0.55,-0.36 -0.73,-0.36l-1.82 2.37c0.91,0.18 1.82,0.18 2.55,0zm-52.45 -2.92l14.02 -19.85c-0.91,0.18 -1.82,0.36 -2.73,0.54l-12.93 18.4c0.54,0.36 1.09,0.55 1.64,0.91zm38.97 7.1c0.73,-2 1.82,-3.27 4.37,-3.82l3.28 -4.73c-0.73,-0.19 -1.46,-0.37 -2,-0.37l-8.56 12.02c1.09,-0.55 2.18,-1.46 2.91,-3.1zm-42.25 -8.74l12.02 -17.12c-0.91,0.18 -2.01,0.37 -2.92,0.55l-11.11 15.84c0.73,0 1.46,0.37 2.01,0.73zm6.37 3.83l6.38 -8.93c-0.37,-0.73 -0.73,-1.64 0,-2.91 1.09,-2.01 2.55,-2.73 4.55,-3.46l7.29 -10.38c0,-0.55 0,-0.55 0,-0.55 0,0 -1.83,2.91 -4.38,3.64 -0.18,0 -0.36,0.18 -0.54,0.18l-15.12 21.31c0.73,0.19 1.28,0.73 1.82,1.1zm30.24 8.56l9.1 -12.75c-0.36,0 -0.54,0 -0.91,0 -0.54,0 -1.09,0.18 -1.82,0.18l-8.92 12.75c0.91,0 2,0 2.55,-0.18zm-2.74 13.29l-12.93 18.4c-0.54,2.37 -1.45,4.55 -2.18,6.74l16.93 -24.04c-0.54,-0.37 -1.09,-0.73 -1.82,-1.1zm-87.06 -40.25l4.19 -5.83c-0.54,-0.54 -0.91,-0.91 -1.45,-1.45l-2.37 3.46c-0.18,1.27 -0.18,2.36 -0.37,3.82zm-12.93 18.21c-0.36,-1.09 -0.54,-1.82 -0.73,-2.55l-5.82 8.2c0,1.09 0,2.37 0,3.46l6.55 -9.11zm62.66 -5.28l10.2 -14.39c-1.1,0.37 -2.37,0.73 -3.46,1.46l-8.75 12.39c0.73,0.18 1.28,0.36 2.01,0.54zm-67.94 19.13l7.1 -10.02c-0.54,-0.55 -0.91,-1.09 -1.09,-1.82l-6.56 9.29c0,0.91 0.37,1.64 0.55,2.55zm87.61 -24.59l-8.38 12.02c0.54,0.36 1.09,0.73 1.46,1.27l9.28 -13.29c-0.91,0 -1.63,-0.18 -2.36,0zm3.82 30.05l16.58 -23.49c-0.73,0 -1.46,-0.19 -2.19,-0.19l-15.12 21.5c0.19,0.54 0.55,1.45 0.73,2.18zm-84.14 10.02l43.71 -61.93 0 -0.54c0,-0.91 0,-1.82 -0.18,-2.55l-44.45 63.02c0.19,0.72 0.55,1.45 0.92,2zm17.85 -41.71c0,0 0,0 0,0l0 0c0,0 0,0 0,0zm-22.77 32.24c0.36,0.73 0.73,1.45 1.09,2l21.31 -30.23c0,-1.46 0,-2.74 0.36,-4.01l-12.02 17.12c0,0.55 0,1.09 0,1.46 0.19,1.27 0.19,1.27 0.19,1.27 0,0 -0.73,-0.18 -1.82,-0.54l-9.11 12.93zm87.42 -4.74l14.03 -19.85 -0.91 0c-0.55,0 -0.91,0 -1.46,-0.18l-12.57 17.85c0.37,0.91 0.73,1.64 0.91,2.18zm-57.37 -14.93l14.57 -20.58c-0.18,-1.1 0,-2.37 0.73,-3.83 0.36,-0.73 0.73,-1.46 1.09,-2.18l-40.61 57.55c0.18,0.36 0.36,0.91 0.36,1.27 0,0.55 0.18,1.1 0.18,1.46l10.02 -14.02c2.19,-8.02 7.1,-14.94 13.66,-19.67zm-14.02 42.07l-13.12 18.76c0.73,0 1.64,0 2.37,0l11.48 -16.21c-0.19,-0.91 -0.55,-1.82 -0.73,-2.55zm74.67 -15.85c0.18,1.1 0.18,2.01 0.36,3.1l12.39 -17.48c-0.73,-0.19 -1.27,-0.55 -2,-0.73l-10.75 15.11zm-68.12 -44.8l-10.74 15.3c-0.37,1.64 -0.55,3.28 -0.73,4.55l12.2 -17.12c-0.36,-0.91 -0.54,-1.82 -0.73,-2.73zm24.23 -21.67l-18.58 26.22 0 0.19c-0.36,1.82 -0.73,3.64 -1.28,5.1l20.77 -29.33c-0.37,-0.91 -0.73,-1.64 -0.91,-2.18zm-31.88 77.4l-16.57 23.5c0.73,0 1.64,0 2.37,0l14.75 -20.95c-0.18,-0.73 -0.36,-1.64 -0.55,-2.55zm69.58 -27.68c0.36,0.54 0.73,1.27 1.09,1.82l11.66 -16.39c-0.73,0 -1.64,-0.19 -2.37,-0.19l-10.38 14.76zm-65.93 38.97c-0.37,-0.72 -0.73,-1.27 -0.91,-2l-10.2 14.39 2.36 0 8.75 -12.39zm87.97 -34.78c-0.19,-0.19 -0.55,-0.37 -0.73,-0.37 -0.37,-0.18 -0.73,-0.36 -1.09,-0.54l-13.85 19.48c0,1.46 -0.18,2.74 -0.36,4.01l10.75 -15.3c-0.73,-0.36 -1.28,-0.73 -1.28,-0.73 0,0 0.55,-0.54 2.73,-1.45l3.83 -5.1zm-85.61 -36.25l-6.55 9.29c-0.55,1.64 -1.1,3.64 -1.64,5.65l9.1 -12.93c-0.18,-0.73 -0.54,-1.46 -0.91,-2.01zm22.77 16.03l12.02 -16.94c-0.36,0.18 -0.73,0.37 -1.27,0.55 -1.1,0.54 -2.01,1.09 -2.74,1.64l-11.11 15.66c0.91,-0.36 2.01,-0.55 3.1,-0.91zm-9.84 4.01c1.28,-0.73 2.55,-1.28 3.83,-1.82l8.56 -12.21c-0.36,-0.36 -0.73,-1.09 -1.09,-2l-11.3 16.03zm71.22 52.09c0,0 -0.18,-0.37 -0.36,-0.73 -0.19,-0.55 -0.55,-1.46 -0.92,-2.37l-1.45 2c0.73,0.37 1.45,0.73 1.82,0.92 0.55,0 0.91,0.18 0.91,0.18zm24.95 -4.56c-0.18,-0.72 -0.54,-1.45 -0.91,-2.18l-1.64 2.37c0,0 0,0 0,0 0.73,0.54 1.09,0.91 1.64,1.09 1.28,0.91 1.28,0.91 1.28,0.91 0,0 -0.19,-0.91 -0.37,-2.19zm-40.98 -13.66c0,-20.21 -16.21,-36.6 -36.24,-36.6 -20.04,0 -36.25,16.39 -36.25,36.6 0,20.22 16.21,36.61 36.25,36.61 20.03,0 36.24,-16.39 36.24,-36.61zm-36.24 35.34c-19.31,0 -34.97,-15.85 -34.97,-35.33 0,-19.49 15.66,-35.34 34.97,-35.34 19.3,0 34.97,15.85 34.97,35.34 0,19.48 -15.67,35.33 -34.97,35.33zm21.49 -39.16l-2 0 0 1.27 6.55 0 0 -1.27 -1.64 0 0 -2.55 1.64 0 0 -1.64 -1.64 0 0 -9.84 -2.55 0 -5.82 11.48 5.46 0 0 2.55zm-3.46 -4.19l3.46 -6.37 0 6.37 -3.46 0zm-6.38 -5.83l0.73 -0.73 0 10.75 -1.64 0 0 1.27 6.56 0 0 -1.27 -1.64 0 0 -14.03 -1.82 0 -3.1 3.1 0.73 0.91 0.18 0zm-12.02 -2.73l0 -1.28 -6.55 0 0 1.28 1.63 0 0 12.75 -1.63 0 0 1.27 6.55 0 0 -1.27 -1.64 0 0 -5.1 1.28 -1.28 4.01 6.38 -1.1 0 0 1.27 5.47 0 0 -1.27 -0.73 0 -5.47 -8.38 4.19 -4.37 1.83 0 0 -1.28 -5.47 0 0 1.28 1.64 0 -5.46 5.83 0 -5.83 1.45 0zm-7.83 12.75l-1.82 0 0 -17.12 4.37 0 0 1.64 1.64 0 0 -3.1 -10.93 0 0 1.28 1.64 0 0 17.3 -1.64 0 0 1.27 6.74 0 0 -1.27zm-18.03 -12.75l3.28 0 0 12.75 -1.64 0 0 1.27 9.29 0 0 -1.27 -4.37 0 0 -12.75 3.28 0 0 1.64 1.45 0 0 -2.92 -12.75 0 0 2.92 1.46 0 0 -1.64zm37.16 6.56l-5.1 0 0 1.45 5.1 0 0 -1.45zm-43.72 8.56l0 0.73 65.94 0 0 -0.73 -65.94 0zm17.67 1.45l-1.82 0c0,9.29 7.47,16.94 16.76,16.94 9.28,0 16.75,-7.65 16.75,-16.94l-1.82 0c0,8.38 -6.74,15.12 -14.93,15.12 -8.2,0 -14.94,-6.74 -14.94,-15.12zm32.42 3.65l9.65 2c1.1,-2.55 2.73,-2.91 3.46,-5.83l-12.75 0c0,1.28 0,2.73 -0.36,3.83zm10.38 2l-0.36 0.73 -10.02 -2.19c-0.18,1.1 -0.55,2.19 -1.09,3.1l9.11 4.01c1.82,-2.55 3.82,-2.37 5.1,-6.38l-2.19 -0.36c-0.37,0.36 -0.55,0.73 -0.55,1.09zm-1.82 5.65l-0.55 0.73 -9.47 -4.19c-0.54,0.91 -1.09,2 -1.64,2.91l8.02 5.83c2.37,-2 4.19,-1.46 6.19,-5.1l-2.19 -0.91c0,0.18 -0.18,0.36 -0.36,0.73zm-2.91 5.28l-0.55 0.54 -8.38 -6.19c-0.73,0.91 -1.46,1.64 -2.18,2.37l6.55 7.47c2.73,-1.46 4.37,-0.55 7.11,-3.65l-1.83 -1.27c-0.18,0.18 -0.36,0.36 -0.72,0.73zm-3.83 4.37l-0.73 0.36 -6.92 -7.65c-0.73,0.73 -1.64,1.28 -2.73,1.82l4.92 8.75c2.91,-0.91 4.37,0.36 7.83,-2.19l-1.64 -1.64c-0.18,0.37 -0.55,0.37 -0.73,0.55zm-4.73 3.64l-0.73 0.37 -5.1 -8.93c-0.91,0.55 -2.01,0.91 -3.1,1.28l3.1 9.47c3.09,-0.19 4.19,1.27 8.01,-0.37l-1.27 -2c-0.37,0 -0.73,0 -0.91,0.18zm-5.47 2.55l-0.91 0.18 -3.09 -9.83c-1.1,0.36 -2.19,0.54 -3.28,0.73l1.09 10.01c3.1,0.37 3.82,2.19 8.01,1.28l-0.73 -2.19c-0.36,-0.36 -0.72,-0.18 -1.09,-0.18zm-5.64 1.28l-0.92 0 -1.09 -10.38c-1.09,0 -2.18,0 -3.28,0l-1.09 10.01c2.92,1.1 3.28,2.92 7.47,2.92l-0.36 -2.37c-0.19,-0.18 -0.55,-0.18 -0.73,-0.18zm-6.74 -0.18l1.09 -10.39c-1.09,-0.18 -2.19,-0.36 -3.28,-0.73l-3.09 9.48c2.54,1.64 2.73,3.64 6.73,4.37l0.19 -2.37c-0.37,-0.18 -0.55,-0.18 -0.91,-0.36l-0.73 0zm-5.83 -1.28l3.09 -9.84c-1.09,-0.36 -2,-0.91 -2.91,-1.45l-4.92 8.74c2.19,2.19 1.82,4.01 5.65,5.83l0.54 -2.19c-0.18,-0.18 -0.54,-0.36 -0.72,-0.54l-0.73 -0.55zm-5.28 -2.55l5.1 -8.93c-0.91,-0.54 -1.82,-1.27 -2.55,-2l-6.56 7.47c1.82,2.55 0.91,4.37 4.37,6.74l1.09 -2.01c-0.18,-0.18 -0.36,-0.36 -0.72,-0.72l-0.73 -0.55zm-4.74 -3.64l6.92 -7.65c-0.73,-0.73 -1.45,-1.64 -2.18,-2.55l-8.02 5.83c1.1,2.91 0,4.37 2.92,7.65l1.45 -1.83c-0.18,-0.18 -0.36,-0.54 -0.54,-0.72l-0.55 -0.73zm-3.82 -4.37l8.38 -6.2c-0.55,-0.91 -1.1,-1.82 -1.64,-2.91l-9.11 4.01c0.54,3.09 -0.91,4.37 1.27,8.01l1.82 -1.46c-0.18,-0.36 -0.18,-0.54 -0.36,-0.91l-0.36 -0.54zm-2.92 -5.29l9.47 -4.18c-0.36,-1.1 -0.73,-2.01 -0.91,-3.1l-9.83 2c-0.19,3.1 -1.64,4.19 -0.37,8.2l2.01 -1.09c0,-0.37 -0.19,-0.55 -0.19,-0.91l-0.18 -0.92zm-1.64 -4.91l0 -0.91 10.02 -2.19c-0.18,-1.09 -0.36,-2.19 -0.36,-3.28l-9.84 0c-0.73,3.1 -2.55,3.64 -2,7.83l2.18 -0.54c0,-0.18 0,-0.55 0,-0.91zm27.87 1.82l-2.19 -0.18 5.1 -3.83 -2.73 -0.36 3.83 -3.46 -4.74 0 -2.91 4.37 2 0.18 -3.46 3.46 1.82 0.36 -3.28 3.65 6.56 -4.19z"/>
 </g>
</svg>
