<?xml version="1.0" encoding="UTF-8"?>
<!DOCTYPE svg PUBLIC "-//W3C//DTD SVG 1.1//EN" "http://www.w3.org/Graphics/SVG/1.1/DTD/svg11.dtd">
<!-- Creator: CorelDRAW 2017 -->
<svg xmlns="http://www.w3.org/2000/svg" xml:space="preserve" width="1918px" height="1918px" version="1.1" style="shape-rendering:geometricPrecision; text-rendering:geometricPrecision; image-rendering:optimizeQuality; fill-rule:evenodd; clip-rule:evenodd"
viewBox="0 0 1918 1917.52"
 xmlns:xlink="http://www.w3.org/1999/xlink">
 <defs>
  <style type="text/css">
   <![CDATA[
    .fil0 {fill:#878787}
   ]]>
  </style>
 </defs>
 <g id="Слой_x0020_1">
  <metadata id="CorelCorpID_0Corel-Layer"/>
  <path class="fil0" d="M321.75 273.92c365.21,-365.22 957.12,-365.22 1322.33,0 365.22,365.21 365.22,957.12 0,1322.33 -354.56,354.56 -925.63,366.19 -1294.73,26.65l-283.35 283.35c-15.02,15.02 -39.72,15.02 -54.74,0 -15.01,-15.01 -15.01,-39.72 0,-54.73l283.85 -283.36c-339.55,-368.61 -327.92,-939.68 26.64,-1294.24l0 0zm1518.99 661.65c0,-473.72 -384.11,-857.82 -857.34,-857.82 -473.23,0 -857.83,384.1 -857.83,857.34 0,224.75 88.16,440.29 245.58,600.62 4.85,2.9 8.72,6.78 11.63,11.62 10.17,9.69 20.34,19.38 31,29.07l0 -21.8c0,-15.5 1.45,-31.49 4.84,-46.5 0.49,-2.91 1.45,-5.33 1.94,-8.24 19.86,-69.75 73.14,-124.96 142.4,-146.76l232.02 -75.08 0 -95.9c-84.77,-52.32 -143.86,-138.05 -162.75,-235.89l-12.6 -42.63c-57.64,-21.8 -89.6,-82.83 -75.07,-142.41 7.26,-30.51 28.57,-55.7 57.15,-67.81l0 -150.64c-1.45,-210.21 168.08,-382.17 378.3,-383.62 210.22,-1.45 382.17,168.08 383.62,378.29 0,1.94 0,3.4 0,5.33l0 150.16c29.06,12.11 50.38,37.3 57.64,67.81 14.53,59.58 -17.44,120.61 -75.08,142.41l-12.59 42.62c-18.89,97.85 -77.98,183.58 -162.75,235.89l0 95.91 232.02 75.07c69.26,21.8 122.54,77.02 142.4,146.77 0.97,2.91 1.45,5.33 1.94,8.23 3.39,15.5 5.33,31 4.84,46.5l0 21.8c12.6,-11.14 24.71,-22.76 36.82,-34.39 162.26,-160.33 252.35,-378.78 251.87,-605.95zm-977.95 346.33c76.53,34.39 164.2,34.39 240.73,0l0 -66.85c-77.98,28.1 -163.23,28.1 -240.73,0l0 66.85zm492.61 -504.72c-2.42,-9.69 -9.21,-17.92 -18.41,-21.8 -41.17,16.95 -88.15,-2.9 -105.11,-43.59 -3.39,-8.72 -5.33,-17.44 -5.81,-27.13l-4.36 -93c-19.86,0 -46.98,-0.48 -78.95,-2.9 -206.34,174.37 -496,165.17 -508.11,164.68 0,0 0,0 -0.48,0 -11.63,2.43 -20.83,11.63 -23.74,23.25 -6.78,28.58 10.66,57.65 39.24,64.43 0.97,0.48 2.42,0.48 3.39,0.48 14.05,2.42 24.7,13.08 27.61,27.13l17.44 59.09c0.48,0.97 0.48,1.94 0.96,3.39 29.55,156.94 180.67,260.59 338.1,231.05 117.21,-22.28 208.76,-113.83 231.04,-231.05 0,-0.97 0.49,-1.94 0.97,-3.39l17.44 -59.09c2.42,-14.05 13.56,-24.71 27.61,-27.13 25.67,-4.36 44.08,-26.64 44.08,-52.31 -0.98,-3.88 -1.46,-7.75 -2.91,-12.11zm-399.13 -216.52c-29.06,29.55 -98.81,89.13 -214.09,118.68 81.86,-10.18 198.59,-36.33 301.28,-101.72 -30.51,-4.36 -59.58,-10.17 -87.19,-16.96l0 0zm-286.26 64.43c102.69,-14.05 171.95,-55.71 210.7,-86.71 -52.79,-17.92 -102.68,-44.07 -147.25,-77.5 -15.01,-11.62 -17.44,-32.45 -6.29,-47.46 11.62,-15.02 32.45,-17.44 47.46,-6.3 170.02,130.29 475.17,116.73 478.08,116.25 18.89,-0.97 34.87,13.56 35.36,31.97 0,0 0,0 0,0l5.81 125.93c0,2.43 0.97,4.85 2.42,6.79l0 -145.32c1.46,-172.92 -137.56,-314.35 -310.48,-315.81 -172.92,-1.45 -314.36,137.56 -315.81,310.48 0,1.46 0,3.4 0,4.85l0 82.83zm815.2 1006.04l0 -76.53c0,-10.66 -0.97,-20.83 -3.39,-31.49 -0.48,-1.93 -0.97,-3.87 -1.45,-5.81 -13.57,-47.95 -50.38,-85.25 -97.85,-100.26l-241.7 -78.47c-99.78,48.44 -215.55,48.44 -315.33,0l-241.7 78.47c-47.47,14.53 -84.28,52.31 -97.84,100.26 -0.49,1.94 -0.97,3.88 -1.45,5.33 -2.43,10.17 -3.4,20.83 -3.4,31.48l0 76.53c299.83,216.52 704.28,216.52 1004.11,0.49z"/>
 </g>
</svg>
