<?xml version="1.0" encoding="UTF-8"?>
<!DOCTYPE svg PUBLIC "-//W3C//DTD SVG 1.1//EN" "http://www.w3.org/Graphics/SVG/1.1/DTD/svg11.dtd">
<!-- Creator: CorelDRAW 2017 -->
<svg xmlns="http://www.w3.org/2000/svg" xml:space="preserve" width="3843px" height="3638px" version="1.1" style="shape-rendering:geometricPrecision; text-rendering:geometricPrecision; image-rendering:optimizeQuality; fill-rule:evenodd; clip-rule:evenodd"
viewBox="0 0 3843 3638.33"
 xmlns:xlink="http://www.w3.org/1999/xlink">
 <defs>
  <style type="text/css">
   <![CDATA[
    .fil0 {fill:#d5d5d5}
   ]]>
  </style>
 </defs>
 <g id="Слой_x0020_1">
  <metadata id="CorelCorpID_0Corel-Layer"/>
  <g id="Group_11_copy">
   <polygon class="fil0" points="0,2312.51 1.43,2311.08 1221.44,3531.09 1220.01,3532.52 "/>
   <polygon id="Rectangle_8_copy" class="fil0" points="1256.03,3565.88 1326.84,3636.9 1325.41,3638.33 1254.6,3567.31 "/>
   <polygon id="Rectangle_8_copy_2" class="fil0" points="2311.08,1.43 2312.51,0 3737.19,1424.67 3735.76,1426.1 "/>
   <polygon id="Rectangle_8_copy_2-2" class="fil0" points="3771.98,1459.26 3843,1530.07 3841.57,1531.51 3770.55,1460.69 "/>
   <polygon id="Rectangle_8_copy_3" class="fil0" points="1156.15,1156.15 1157.59,1154.72 2377.6,2374.73 2376.16,2376.16 "/>
   <polygon id="Rectangle_8_copy_3-2" class="fil0" points="2412.39,2409.52 2483.2,2480.33 2481.77,2481.77 2410.96,2410.95 "/>
   <polygon id="Rectangle_8_copy_4" class="fil0" points="577.36,1735.15 578.79,1733.72 1655.54,2810.46 1654.1,2811.89 "/>
   <polygon id="Rectangle_8_copy_4-2" class="fil0" points="1690.33,2845.05 1761.14,2915.86 1759.71,2917.29 1688.9,2846.48 "/>
   <polygon id="Rectangle_8_copy_5" class="fil0" points="1735.15,577.36 1736.58,575.92 2813.33,1652.67 2811.9,1654.1 "/>
   <polygon id="Rectangle_8_copy_5-2" class="fil0" points="2848.12,1687.46 2918.93,1758.27 2917.5,1759.71 2846.48,1688.89 "/>
  </g>
 </g>
</svg>
