<svg xmlns="http://www.w3.org/2000/svg" width="37" height="12" viewBox="0 0 37 12">
  <metadata><?xpacket begin="﻿" id="W5M0MpCehiHzreSzNTczkc9d"?>
<x:xmpmeta xmlns:x="adobe:ns:meta/" x:xmptk="Adobe XMP Core 5.6-c142 79.160924, 2017/07/13-01:06:39        ">
   <rdf:RDF xmlns:rdf="http://www.w3.org/1999/02/22-rdf-syntax-ns#">
      <rdf:Description rdf:about=""/>
   </rdf:RDF>
</x:xmpmeta>
                                                                                                    
                                                                                                    
                                                                                                    
                                                                                                    
                                                                                                    
                                                                                                    
                                                                                                    
                                                                                                    
                                                                                                    
                                                                                                    
                                                                                                    
                                                                                                    
                                                                                                    
                                                                                                    
                                                                                                    
                                                                                                    
                                                                                                    
                                                                                                    
                                                                                                    
                                                                                                    
                           
<?xpacket end="w"?></metadata>
<defs>
    <style>
      .cls-1 {
        fill: #151515;
        fill-rule: evenodd;
        opacity: 0.5;
      }
    </style>
  </defs>
  <path id="Shape_1_copy" data-name="Shape 1 copy" class="cls-1" d="M797.957,585.359l-0.013.039,0.043,0.064h0l-0.03-.1h0Zm-5.013,1.311h1v0.978h-1v1.57h1.018v0.772h-4.033v-0.772h1.2v-1.57H787.8l3.589-6.875h1.553v5.9Zm-3.889,0h2.075v-3.83Zm-1.421,2.548h1.018v0.772H784.62v-0.772h1.018v-6.46l-0.5.44h-0.131l-0.456-.565,1.931-1.86h1.148v8.445Zm-7.459-7.672h-1.057v-0.773h3.3v0.773H781.31l-2.518,2.6,3.372,5.076h0.488v0.772h-3.3v-0.772h0.679l-2.457-3.819-0.764.789v3.03h1.018v0.772h-4.033v-0.772h1.018v-7.672h-1.018v-0.773h4.033v0.773h-1.018V585ZM769.9,589.218V578.775h-1.018v-0.769h6.695v1.86h-0.979V578.93h-2.7v10.288h1.122v0.772h-4.137v-0.772H769.9Zm-7,.772v-0.772h1.017v-7.672h-1.97v0.964h-0.939v-1.737h7.816v1.737h-0.939v-0.964h-1.971v7.672H768.6v0.772h-5.7Zm18.647-4.54h3.1v0.85h-3.1v-0.85Z" transform="translate(-761 -578)"/>
</svg>
